<svg xmlns="http://www.w3.org/2000/svg"><symbol id="mars1" viewBox="0 0 256 256"><path d="M126 1l110 63.5v127L126 255 16 191.5v-127L126 1z"/><path id="graphic1" fill="#fff" d="M63.8 179.5l-4.8-6.9a2.2 2.2 0 0 1 .2-2.5l17.3-20.4H68a2 2 0 0 1-2.1-2.1v-15a2 2 0 0 1 2.1-2.1h12.1a58.3 58.3 0 0 1-2.3-15.9 49.3 49.3 0 0 1 98.7 0 51.2 51.2 0 0 1-2.3 15.9h12.1a2 2 0 0 1 2.1 2.1v15a2 2 0 0 1-2.1 2.1h-10.7l17.1 20.4a2.2 2.2 0 0 1 0 2.5l-4.8 6.9a2.2 2.2 0 0 1-2.7.6l-10-5.2H76.6l-10 5.2a2.3 2.3 0 0 1-2.8-.6zm31.7-29.8H81.8l-18.4 21.7 2.9 4.2 35.3-18.6zm-25.4-15v10.8h114.1v-10.8zm14.4-4.2h85.3a50.4 50.4 0 0 0 2.5-15.9 45.2 45.2 0 0 0-90.3 0c0 5.5.4 11.1 2.5 15.9zm20 29.8l-19.8 10.5h28.4zm-3.5-10.6l17.5 21.1h15l17.5-21.1zm46.5 10.6l-8.6 10.4h28.4zm22.7-10.6h-13.7l-6.3 7.3 35.5 18.6 2.9-4z"/></symbol><symbol id="mars2" viewBox="0 0 256 256"><path d="M129 1l110 63.5v127L129 255 19 191.5v-127L129 1z"/><path id="graphic2" fill="#fff" d="M65.2 170.3a2.1 2.1 0 0 1 0-4.2h10.4V153H65.2a2 2 0 0 1-2.1-2.1v-41.1a2 2 0 0 1 2.1-2.1h13.7c1-29.6 23.2-45.9 50.1-45.9s49 16.3 50.1 45.9h13.8a2 2 0 0 1 2.1 2.1v41.1a2 2 0 0 1-2.1 2.1h-10.5v13.1h10.4a2.1 2.1 0 1 1 0 4.2zm2.1-58.4v36.9h123.4v-36.9zM79.8 153v13.1h13.3V153zm3.3-45.3h91.8C173.8 80.8 153.4 66 129 66s-44.9 14.8-45.9 41.7zM97.3 153v13.1h20.9V153zm25 0v13.1h13.4V153zm56.5-14.2H128a2.1 2.1 0 1 1 0-4.2h50.9a2.1 2.1 0 0 1 0 4.2zm-39 14.2v13.1h20.9V153zm25 0v13.1h13.4V153z"/></symbol><symbol id="mars3" viewBox="0 0 256 256"><path d="M127 1l110 63.5v127L127 255 17 191.5v-127L127 1z"/><path id="graphic3" fill="#fff" d="M66.7 174.9a2 2 0 0 1-2.1-2.1v-25.2H37.1a2.1 2.1 0 0 1 0-4.2h15.6v-13.5a2 2 0 0 1 2.1-2.1H63a66.1 66.1 0 0 1 63.8-50.7c.2-.2.4-.2.8 0 30.9.2 56.5 21.9 63.4 50.7h8.1a2 2 0 0 1 2.1 2.1v13.6h15.6a2.1 2.1 0 1 1 0 4.2h-27.4v25.2a2 2 0 0 1-2.1 2.1zm-9.8-43v11.5h140.2V132zm65.9-50.5c-26.7 1.7-49 21.1-55.5 46.3h22.4zm-54 66.1v23.2h56.1v-23.1zm56.1-62l-30 42.1h30zm4.2-4.4v46.5h57.6a62 62 0 0 0-57.6-46.3zm0 66.3v23.2h9.4v-23zm13.6 0v23.2h42.6v-23z"/></symbol></svg>